<svg id="Layer_1" data-name="Layer 1" xmlns="http://www.w3.org/2000/svg" viewBox="0 0 60 61"><defs><style>.cls-1{fill:#a91200;}</style></defs><title>berlin-04</title><path class="cls-1" d="M38.23,6.5c-3.4,0-4.55,1.25-8.23,1.25S25.17,6.5,21.77,6.5c-1.92,0-6.77,1.62-6.77,9A32.37,32.37,0,0,0,18,28,2.19,2.19,0,0,0,20,29.5h1.1l.25,2h-.8a1.5,1.5,0,0,0,0,3h1.18l.25,2H21a1.5,1.5,0,0,0,0,3h1.3l.25,2H21.5a1.5,1.5,0,0,0,0,3h1.43l.25,2H22a1.5,1.5,0,0,0,0,3h1.55l.24,1.93a3.51,3.51,0,0,0,3.48,3.07h5.46a3.51,3.51,0,0,0,3.48-3.07l.24-1.93H38a1.5,1.5,0,0,0,0-3H36.82l.25-2H38.5a1.5,1.5,0,0,0,0-3h-1l.25-2H39a1.5,1.5,0,0,0,0-3h-.93l.25-2H39.5a1.5,1.5,0,0,0,0-3h-.8l.25-2h1.1A2.19,2.19,0,0,0,42,28,32.37,32.37,0,0,0,45,15.5C45,8.12,40.15,6.5,38.23,6.5Zm-5,44.56a.5.5,0,0,1-.5.44H27.27a.5.5,0,0,1-.5-.44l-.2-1.56h6.86Zm.57-4.56H26.2l-.25-2h8.1Zm.63-5H25.57l-.25-2h9.36Zm.62-5H25l-.25-2H35.3Zm.63-5H24.32l-.25-2H35.93Z"/></svg>