<svg id="Layer_1" data-name="Layer 1" xmlns="http://www.w3.org/2000/svg" viewBox="0 0 60 61"><defs><style>.cls-1{fill:#a91200;}</style></defs><title>berlin-10</title><path class="cls-1" d="M46.12,33.82,44.9,29.57l-2.06,1.1C38.33,33.06,33.33,37,27,37s-11.33-3.94-15.84-6.33C5.44,27.64,3,26.28,3,26.28s-.17-.1-.12-.24.25-.09.25-.09S16.65,30,27,30a80.58,80.58,0,0,0,15.92-2l-3.74-1.08a3,3,0,0,1,0-5.76l1.55-.45A16.67,16.67,0,0,0,33.65,19,7.79,7.79,0,0,0,27,22.5,7.79,7.79,0,0,0,20.35,19c-5.66,0-8.9,3-13.87,4.68-1.6.54-3.05,1.2-4.24,1.15-.74,0-1.24.26-1.24.68a1.09,1.09,0,0,0,.28.71c1,1.17,2.3,2.72,3.71,4.55C8.37,35.12,15.45,47,27,47c9.09,0,15.42-7.36,19.34-12.62A2.72,2.72,0,0,1,46.12,33.82Z"/><path class="cls-1" d="M49,34a1,1,0,0,1-1-.73l-1.85-6.46L39.73,25a1,1,0,0,1,0-1.92l6.46-1.85L48,14.73a1,1,0,0,1,1.92,0l1.85,6.46L58.28,23a1,1,0,0,1,0,1.92l-6.47,1.85L50,33.27A1,1,0,0,1,49,34ZM43.64,24l3.64,1a1,1,0,0,1,.68.69l1,3.63,1-3.63a1,1,0,0,1,.69-.69l3.63-1-3.63-1a1,1,0,0,1-.69-.69l-1-3.63-1,3.63a1,1,0,0,1-.68.69Z"/></svg>