<svg id="Layer_1" data-name="Layer 1" xmlns="http://www.w3.org/2000/svg" viewBox="0 0 60 61"><defs><style>.cls-1{fill:#a91200;}</style></defs><title>berlin-12</title><path class="cls-1" d="M41,29.5a4,4,0,0,1-3.85-2.9l-1.39-4.86L30.9,20.35a4,4,0,0,1,0-7.7l4.86-1.39,1.36-4.75h-.24c-4.09,0-5.46,1.25-9.88,1.25S21.21,6.5,17.12,6.5C14.82,6.5,9,8.12,9,15.5c0,7,3.27,11,4,15,.81,4.44,2.38,24,6,24s1.56-20,8-20,4.38,20,8,20,5.19-19.56,6-24c.06-.34.15-.68.24-1Z"/><path class="cls-1" d="M41,26.5a1,1,0,0,1-1-.73l-1.85-6.46-6.46-1.85a1,1,0,0,1,0-1.92l6.46-1.85L40,7.23a1,1,0,0,1,1.92,0l1.85,6.46,6.46,1.85a1,1,0,0,1,0,1.92l-6.46,1.85L42,25.77A1,1,0,0,1,41,26.5Zm-5.36-10,3.63,1a1,1,0,0,1,.69.69l1,3.63,1-3.63a1,1,0,0,1,.69-.69l3.63-1-3.63-1a1,1,0,0,1-.69-.69l-1-3.63-1,3.63a1,1,0,0,1-.69.69Z"/></svg>