<svg id="Layer_1" data-name="Layer 1" xmlns="http://www.w3.org/2000/svg" viewBox="0 0 60 61"><defs><style>.cls-1{fill:#a91200;}</style></defs><title>berlin-05</title><path class="cls-1" d="M36.22,54.5c-3.83,0-5.4-2.76-6.22-6-.82,3.26-2.39,6-6.22,6-6.65,0-7.76-8.79-9.16-19.92-.16-1.33-.32-2.6-.43-3.19a14.81,14.81,0,0,0-.88-2.52A25.74,25.74,0,0,1,11,18.62C11,9.79,17.94,6.5,22.32,6.5a19.92,19.92,0,0,1,4.78.6,11.24,11.24,0,0,0,2.9.39,11.24,11.24,0,0,0,2.9-.39,19.92,19.92,0,0,1,4.78-.6C42.06,6.5,49,9.79,49,18.62a25.65,25.65,0,0,1-2.31,10.24,15.17,15.17,0,0,0-.88,2.53c-.11.59-.27,1.86-.43,3.19C44,45.71,42.87,54.5,36.22,54.5ZM30,41.36a1,1,0,0,1,1,.85c.08.54.15,1,.2,1.46.71,5.17,1.48,8.83,5,8.83,4.4,0,5.62-5.82,7.17-18.17.18-1.42.33-2.65.45-3.3a16,16,0,0,1,1-2.91A24.17,24.17,0,0,0,47,18.62C47,11.25,41.28,8.5,37.68,8.5a18.58,18.58,0,0,0-4.34.55A13.07,13.07,0,0,1,30,9.49a13.07,13.07,0,0,1-3.34-.44,18.58,18.58,0,0,0-4.34-.55C18.72,8.5,13,11.25,13,18.62a24.07,24.07,0,0,0,2.16,9.49,16.35,16.35,0,0,1,1,2.92c.12.65.27,1.88.45,3.3,1.55,12.35,2.77,18.17,7.17,18.17,3.55,0,4.32-3.66,5-8.83.05-.42.12-.92.2-1.46A1,1,0,0,1,30,41.36Z"/><path class="cls-1" d="M30,33.67c5,0,3.4,15.83,6.22,15.83s4-15.49,4.67-19C41.45,27.36,44,24.17,44,18.62c0-5.84-4.52-7.12-6.32-7.12-3.18,0-4.24,1-7.68,1s-4.5-1-7.68-1c-1.8,0-6.32,1.28-6.32,7.12,0,5.55,2.55,8.74,3.11,11.88.63,3.51,1.85,19,4.67,19S25,33.67,30,33.67Z"/></svg>