<svg id="Layer_1" data-name="Layer 1" xmlns="http://www.w3.org/2000/svg" viewBox="0 0 60 61"><defs><style>.cls-1{fill:#a91200;}</style></defs><title>berlin-13</title><path class="cls-1" d="M46,8.5c-4.83,0-6.75,7.23-7.52,13h4.7a3,3,0,1,1,0,2H38.25C38.1,25,38,26.32,38,27.22a1.28,1.28,0,0,0,1.34,1.28H52.66A1.28,1.28,0,0,0,54,27.22C53.84,22.8,52.79,8.5,46,8.5Z"/><path class="cls-1" d="M16.82,23.5a3,3,0,1,1,0-2h4.7c-.77-5.77-2.69-13-7.52-13-6.79,0-7.84,14.3-8,18.72A1.28,1.28,0,0,0,7.34,28.5H20.66A1.28,1.28,0,0,0,22,27.22c0-.9-.1-2.21-.25-3.72Z"/><path class="cls-1" d="M27.18,21.5a3,3,0,0,1,5.64,0h4.7c-.77-5.77-2.69-13-7.52-13s-6.75,7.23-7.52,13Z"/><path class="cls-1" d="M32.82,23.5a3,3,0,0,1-5.64,0H22.25C22.1,25,22,26.32,22,27.22a1.28,1.28,0,0,0,1.34,1.28H36.66A1.28,1.28,0,0,0,38,27.22c0-.9-.1-2.21-.25-3.72Z"/><path class="cls-1" d="M27.18,37.5a3,3,0,0,1,5.64,0h4.93c.15-1.51.22-2.82.25-3.72a1.28,1.28,0,0,0-1.34-1.28H23.34A1.28,1.28,0,0,0,22,33.78c0,.9.1,2.21.25,3.72Z"/><path class="cls-1" d="M16.82,39.5a3,3,0,1,1,0-2h4.93c.15-1.51.22-2.82.25-3.72a1.28,1.28,0,0,0-1.34-1.28H7.34A1.28,1.28,0,0,0,6,33.78C6.16,38.2,7.21,52.5,14,52.5c4.83,0,6.75-7.23,7.52-13Z"/><path class="cls-1" d="M52.66,32.5H39.34A1.28,1.28,0,0,0,38,33.78c0,.9.1,2.21.25,3.72h4.93a3,3,0,1,1,0,2h-4.7c.77,5.77,2.69,13,7.52,13,6.79,0,7.84-14.3,8-18.72A1.28,1.28,0,0,0,52.66,32.5Z"/><path class="cls-1" d="M32.82,39.5a3,3,0,0,1-5.64,0h-4.7c.77,5.77,2.69,13,7.52,13s6.75-7.23,7.52-13Z"/></svg>