<svg id="Layer_1" data-name="Layer 1" xmlns="http://www.w3.org/2000/svg" viewBox="0 0 60 61"><defs><style>.cls-1{fill:#a91200;}</style></defs><title>berlin-03</title><path class="cls-1" d="M33.85,29.45a3.46,3.46,0,0,1-2.59,2l-.25,0h-.33a3.5,3.5,0,0,1-2.56-1.12l-9.2-10a3.54,3.54,0,0,1-.43-4.16,3.47,3.47,0,0,1,4-1.56l5.66,1.72a51,51,0,0,1,12-9.12,8.39,8.39,0,0,0-3.23-.75c-4.09,0-5.46,1.25-9.88,1.25S21.21,6.5,17.12,6.5C14.82,6.5,9,8.12,9,15.5c0,7,3.27,11,4,15,.81,4.44,2.38,24,6,24s1.56-20,8-20,4.38,20,8,20,5.19-19.56,6-24c.73-4,4-8,4-15,0-.31,0-.6,0-.89A49.19,49.19,0,0,0,33.85,29.45Z"/><path class="cls-1" d="M50.52,6.5H50.4C38.94,9,30.49,18.17,29.07,19.79l-7.45-2.27-.14,0a.49.49,0,0,0-.41.24.51.51,0,0,0,.06.6l9.2,10a.48.48,0,0,0,.35.16h.08a.49.49,0,0,0,.36-.28c.06-.15,7-15.42,19.56-20.74A.5.5,0,0,0,51,7,.49.49,0,0,0,50.52,6.5Z"/></svg>