<svg id="Layer_1" data-name="Layer 1" xmlns="http://www.w3.org/2000/svg" viewBox="0 0 60 61"><defs><style>.cls-1{fill:#a91200;}</style></defs><title>berlin-08</title><path class="cls-1" d="M52,54.5a4,4,0,0,0,4-4v-25a1,1,0,0,0-1-1c-1.89,0-3-1-4.13-2s-2.18-2-3.85-2a3.11,3.11,0,0,0-3,1.69,11.4,11.4,0,0,0-.92,2.71c-.1.6-.25,1.76-.41,3.1C41.19,39.73,40,45.25,35.78,45.25c-3.75,0-4.3-4.11-4.88-8.47a47.18,47.18,0,0,0-.9-5.13,47.18,47.18,0,0,0-.9,5.13c-.58,4.36-1.13,8.47-4.88,8.47-4.26,0-5.41-5.52-6.87-17.25-.16-1.34-.31-2.5-.41-3.1A11.4,11.4,0,0,0,16,22.19a3.11,3.11,0,0,0-3-1.69c-1.67,0-2.78,1-3.85,2s-2.24,2-4.13,2a1,1,0,0,0-1,1v25a4,4,0,0,0,4,4Z"/><path class="cls-1" d="M30,27.35c4.65,0,3.16,14.9,5.78,14.9s3.74-14.57,4.33-17.87c.53-3,2.89-6,2.89-11.18,0-5.49-4.2-6.7-5.87-6.7-3,0-3.94.93-7.13.93s-4.18-.93-7.13-.93C21.2,6.5,17,7.71,17,13.2c0,5.22,2.36,8.22,2.89,11.18.59,3.3,1.71,17.87,4.33,17.87S25.35,27.35,30,27.35Z"/></svg>