<svg id="Layer_1" data-name="Layer 1" xmlns="http://www.w3.org/2000/svg" viewBox="0 0 60 61"><defs><style>.cls-1{fill:#a91200;}</style></defs><title>berlin-18</title><path class="cls-1" d="M27.58,8.42a2,2,0,0,0-2-1.92H14.42a2,2,0,0,0-2,1.92l-.26,6.08H27.83Z"/><polygon class="cls-1" points="27.96 17.5 12.04 17.5 11.04 41.47 28.24 24.27 27.96 17.5"/><path class="cls-1" d="M15,54.5H27.41a2,2,0,0,0,2-2.08l-.49-11.85Z"/><path class="cls-1" d="M52.62,11.38a3.07,3.07,0,0,0-4-.19l-4.4-4.4a1,1,0,1,0-1.42,1.42l4.38,4.38-1.59,1.58L41.21,9.79a1,1,0,0,0-1.42,1.42l4.38,4.38-1.59,1.58-4.37-4.38a1,1,0,0,0-1.42,1.42l4.38,4.38-1.59,1.58-4.37-4.38a1,1,0,0,0-1.42,1.42l4.11,4.1-3.53,1.41a3,3,0,0,0-1,.67l-26,26a3,3,0,0,0,0,4.24,3,3,0,0,0,4.24,0L37.18,28.07l4.43-1.77a3.08,3.08,0,0,0,1-.67l10-10A3,3,0,0,0,52.62,11.38Z"/></svg>